<svg xmlns="http://www.w3.org/2000/svg">
  <symbol viewBox="0 0 24 24" id="Earth">
    <g>
      <path
        d="M17.9,17.39C17.64,16.59 16.89,16 16,16H15V13A1,1 0 0,0 14,12H8V10H10A1,1 0 0,0 11,9V7H13A2,2 0 0,0 15,5V4.59C17.93,5.77 20,8.64 20,12C20,14.08 19.2,15.97 17.9,17.39M11,19.93C7.05,19.44 4,16.08 4,12C4,11.38 4.08,10.78 4.21,10.21L9,15V16A2,2 0 0,0 11,18M12,2A10,10 0 0,0 2,12A10,10 0 0,0 12,22A10,10 0 0,0 22,12A10,10 0 0,0 12,2Z"/>
    </g>
  </symbol>
  <symbol viewBox="0 0 24 24" id="Wrench">
    <g>
      <path
        d="M22.7,19L13.6,9.9C14.5,7.6 14,4.9 12.1,3C10.1,1 7.1,0.6 4.7,1.7L9,6L6,9L1.6,4.7C0.4,7.1 0.9,10.1 2.9,12.1C4.8,14 7.5,14.5 9.8,13.6L18.9,22.7C19.3,23.1 19.9,23.1 20.3,22.7L22.6,20.4C23.1,20 23.1,19.3 22.7,19Z"/>
    </g>
  </symbol>
  <symbol viewBox="0 0 24 24" id="Car">
    <g>
      <path
        d="M5,11L6.5,6.5H17.5L19,11M17.5,16A1.5,1.5 0 0,1 16,14.5A1.5,1.5 0 0,1 17.5,13A1.5,1.5 0 0,1 19,14.5A1.5,1.5 0 0,1 17.5,16M6.5,16A1.5,1.5 0 0,1 5,14.5A1.5,1.5 0 0,1 6.5,13A1.5,1.5 0 0,1 8,14.5A1.5,1.5 0 0,1 6.5,16M18.92,6C18.72,5.42 18.16,5 17.5,5H6.5C5.84,5 5.28,5.42 5.08,6L3,12V20A1,1 0 0,0 4,21H5A1,1 0 0,0 6,20V19H18V20A1,1 0 0,0 19,21H20A1,1 0 0,0 21,20V12L18.92,6Z"/>
    </g>
  </symbol>
  <symbol viewBox="0 0 24 24" id="Road">
    <g>
      <path
        d="M18.1,4.8C18,4.3 17.6,4 17.1,4H13L13.2,7H10.8L11,4H6.8C6.3,4 5.9,4.4 5.8,4.8L3.1,18.8C3,19.4 3.5,20 4.1,20H10L10.3,15H13.7L14,20H19.8C20.4,20 20.9,19.4 20.8,18.8L18.1,4.8M10.4,13L10.6,9H13.2L13.4,13H10.4Z"/>
    </g>
  </symbol>
  <symbol viewBox="0 0 24 24" id="Magnify">
    <g>
    <path d="M9.5,3A6.5,6.5 0 0,1 16,9.5C16,11.11 15.41,12.59 14.44,13.73L14.71,14H15.5L20.5,19L19,20.5L14,15.5V14.71L13.73,14.44C12.59,15.41 11.11,16 9.5,16A6.5,6.5 0 0,1 3,9.5A6.5,6.5 0 0,1 9.5,3M9.5,5C7,5 5,7 5,9.5C5,12 7,14 9.5,14C12,14 14,12 14,9.5C14,7 12,5 9.5,5Z" />
    </g>
  </symbol>
  <symbol viewBox="0 0 24 24" id="Arrow-down">
    <g>
      <path d="M7.41,8.58L12,13.17L16.59,8.58L18,10L12,16L6,10L7.41,8.58Z" />
    </g>
  </symbol>
  <symbol viewBox="0 0 24 24" id="Arrow-up">
    <g>
      <path d="M7.41,15.41L12,10.83L16.59,15.41L18,14L12,8L6,14L7.41,15.41Z" />
    </g>
  </symbol>
  <symbol viewBox="0 0 17 14.6" id="checkMark">
    <g>
      <path d="M5.6,14.6L0,9.2l1.5-1.7l3.8,2.7L15.6,0L17,1.4L5.6,14.6z"/>
    </g>
  </symbol>
</svg>
